<svg xmlns="http://www.w3.org/2000/svg" viewBox="0 0 100 100" fill="none">
<g clip-path="url(#clip0_354_7206)">
<rect width="100" height="100" fill="#2684FC"></rect>
<circle cx="49" cy="50" r="34.5" stroke="#FCFDFE" stroke-width="3"></circle>
<path d="M9.82898 34.5C14.3297 34.5 23.5536 34.5 32.4572 34.5C46.7411 34.5 60.6138 39.2784 71.868 48.0745L92.5 64.2H28" stroke="#2684FC" stroke-width="11" stroke-linecap="square"></path>
<path d="M32.4569 31C47.4104 31 59.2843 33.7891 73 45.5L93.5 66H17.4999V61.2002H82L70.0204 50.4385C57 39.5 46.0712 37 32.4569 37H2.32895L10.3289 31H32.4569Z" fill="#FCFDFE"></path>
<rect x="15" y="66" width="91" height="6" fill="#2684FC"></rect>
<path d="M69 44L69 49L52 49L44 44L69 44Z" fill="#FCFDFE"></path>
</g>
<defs>
<clipPath id="SvgjsClipPath1005">
<rect width="100" height="100" fill="white"></rect>
</clipPath>
</defs>
</svg>
